# xmcd CD database file
# Copyright (C) 1993-1998 Ti Kan
#
# Track frame offsets:
#	182
#	14607
#	32892
#	46705
#	62222
#	75945
#	90727
#	105522
#	119610
#	136297
#
# Disc length: 2018 seconds
#
# Revision: 2
# Processed by: cddbd v1.4PL0 Copyright (c) Steve Scherf et al.
# Submitted via: Gronk 1.4
#
DISCID=7b07e00a
DTITLE=Janis Leigh - i only want to be with you
DYEAR=1900
DGENRE=country
TTITLE0=I Only Want To Be With You
TTITLE1=Runaway
TTITLE2=Problems
TTITLE3=The Last Thing On My Mind
TTITLE4=Here I Go Again
TTITLE5=The Hard Times Make The Good Times Even Better
TTITLE6=Falling For You
TTITLE7=Raining In My Heart
TTITLE8=Til I Lay In Love With You
TTITLE9=I Wanna Wake Up With You
EXTD=
EXTT0=
EXTT1=
EXTT2=
EXTT3=
EXTT4=
EXTT5=
EXTT6=
EXTT7=
EXTT8=
EXTT9=
PLAYORDER=
